<svg xmlns="http://www.w3.org/2000/svg" xmlns:xlink="http://www.w3.org/1999/xlink" width="200" zoomAndPan="magnify" viewBox="0 0 150 44.999999" height="60" preserveAspectRatio="xMidYMid meet" version="1.0"><defs><g/><clipPath id="ab4ae2195a"><path d="M 87 8 L 98.878906 8 L 98.878906 21 L 87 21 Z M 87 8 " clip-rule="nonzero"/></clipPath><clipPath id="bc8b4050e5"><rect x="0" width="99" y="0" height="27"/></clipPath><clipPath id="e451d4f0a4"><path d="M 0 0 L 45.492188 0 L 45.492188 45 L 0 45 Z M 0 0 " clip-rule="nonzero"/></clipPath><clipPath id="4714ce101b"><path d="M 28 38 L 45.492188 38 L 45.492188 45 L 28 45 Z M 28 38 " clip-rule="nonzero"/></clipPath><clipPath id="d4b70b88ad"><path d="M 0 1 L 45.492188 1 L 45.492188 45 L 0 45 Z M 0 1 " clip-rule="nonzero"/></clipPath><clipPath id="ca7aaad341"><path d="M 28 38 L 45.492188 38 L 45.492188 45 L 28 45 Z M 28 38 " clip-rule="nonzero"/></clipPath><clipPath id="7a8951486e"><path d="M 0 0 L 45.492188 0 L 45.492188 45 L 0 45 Z M 0 0 " clip-rule="nonzero"/></clipPath></defs><g transform="matrix(1, 0, 0, 1, 48, 9)"><g clip-path="url(#bc8b4050e5)"><g fill="#f97316" fill-opacity="1"><g transform="translate(0.987251, 20.294542)"><g><path d="M 0.859375 3.046875 L 0.859375 -9.40625 C 0.859375 -9.726562 0.867188 -9.96875 0.890625 -10.125 C 0.910156 -10.28125 0.96875 -10.457031 1.0625 -10.65625 C 1.257812 -11.039062 1.734375 -11.234375 2.484375 -11.234375 C 3.242188 -11.234375 3.753906 -11.132812 4.015625 -10.9375 C 4.273438 -10.75 4.425781 -10.472656 4.46875 -10.109375 C 5.007812 -10.835938 5.859375 -11.203125 7.015625 -11.203125 C 8.179688 -11.203125 9.28125 -10.65625 10.3125 -9.5625 C 11.351562 -8.46875 11.875 -7.195312 11.875 -5.75 C 11.875 -4.300781 11.359375 -3.03125 10.328125 -1.9375 C 9.296875 -0.84375 8.195312 -0.296875 7.03125 -0.296875 C 5.863281 -0.296875 5.019531 -0.625 4.5 -1.28125 L 4.5 3.03125 C 4.5 3.351562 4.488281 3.59375 4.46875 3.75 C 4.445312 3.90625 4.378906 4.085938 4.265625 4.296875 C 4.160156 4.503906 3.976562 4.648438 3.71875 4.734375 C 3.46875 4.816406 3.125 4.859375 2.6875 4.859375 C 2.25 4.859375 1.894531 4.816406 1.625 4.734375 C 1.363281 4.648438 1.179688 4.503906 1.078125 4.296875 C 0.972656 4.097656 0.910156 3.921875 0.890625 3.765625 C 0.867188 3.609375 0.859375 3.367188 0.859375 3.046875 Z M 5.0625 -6.984375 C 4.738281 -6.609375 4.578125 -6.191406 4.578125 -5.734375 C 4.578125 -5.273438 4.742188 -4.859375 5.078125 -4.484375 C 5.410156 -4.109375 5.835938 -3.921875 6.359375 -3.921875 C 6.878906 -3.921875 7.320312 -4.101562 7.6875 -4.46875 C 8.050781 -4.84375 8.234375 -5.265625 8.234375 -5.734375 C 8.234375 -6.203125 8.0625 -6.625 7.71875 -7 C 7.375 -7.375 6.925781 -7.5625 6.375 -7.5625 C 5.832031 -7.5625 5.394531 -7.367188 5.0625 -6.984375 Z M 5.0625 -6.984375 "/></g></g></g><g fill="#f97316" fill-opacity="1"><g transform="translate(13.3884, 20.294542)"><g><path d="M 0.859375 -14.640625 C 0.859375 -14.960938 0.867188 -15.207031 0.890625 -15.375 C 0.910156 -15.539062 0.96875 -15.726562 1.0625 -15.9375 C 1.257812 -16.320312 1.816406 -16.515625 2.734375 -16.515625 C 3.597656 -16.515625 4.132812 -16.320312 4.34375 -15.9375 C 4.457031 -15.726562 4.523438 -15.535156 4.546875 -15.359375 C 4.566406 -15.191406 4.578125 -14.945312 4.578125 -14.625 L 4.578125 -4.75 C 4.578125 -4.238281 4.617188 -3.914062 4.703125 -3.78125 C 4.796875 -3.644531 4.988281 -3.578125 5.28125 -3.578125 C 5.570312 -3.578125 5.765625 -3.566406 5.859375 -3.546875 C 5.960938 -3.523438 6.082031 -3.46875 6.21875 -3.375 C 6.507812 -3.1875 6.65625 -2.679688 6.65625 -1.859375 C 6.65625 -0.960938 6.507812 -0.414062 6.21875 -0.21875 C 5.851562 0.0390625 4.972656 0.0859375 3.578125 -0.078125 C 2.484375 -0.222656 1.773438 -0.585938 1.453125 -1.171875 C 1.054688 -1.867188 0.859375 -2.976562 0.859375 -4.5 Z M 0.859375 -14.640625 "/></g></g></g><g fill="#f97316" fill-opacity="1"><g transform="translate(20.356059, 20.294542)"><g><path d="M 8.140625 -10.03125 C 8.222656 -10.832031 8.785156 -11.234375 9.828125 -11.234375 C 10.378906 -11.234375 10.789062 -11.1875 11.0625 -11.09375 C 11.332031 -11.007812 11.519531 -10.863281 11.625 -10.65625 C 11.726562 -10.445312 11.789062 -10.257812 11.8125 -10.09375 C 11.832031 -9.925781 11.84375 -9.679688 11.84375 -9.359375 L 11.84375 -1.890625 C 11.84375 -1.566406 11.832031 -1.320312 11.8125 -1.15625 C 11.789062 -1 11.734375 -0.8125 11.640625 -0.59375 C 11.441406 -0.226562 10.953125 -0.046875 10.171875 -0.046875 C 9.398438 -0.046875 8.882812 -0.140625 8.625 -0.328125 C 8.363281 -0.523438 8.207031 -0.804688 8.15625 -1.171875 C 7.632812 -0.421875 6.757812 -0.046875 5.53125 -0.046875 C 4.300781 -0.046875 3.160156 -0.601562 2.109375 -1.71875 C 1.054688 -2.84375 0.53125 -4.144531 0.53125 -5.625 C 0.53125 -7.113281 1.054688 -8.414062 2.109375 -9.53125 C 3.171875 -10.644531 4.335938 -11.203125 5.609375 -11.203125 C 6.085938 -11.203125 6.523438 -11.117188 6.921875 -10.953125 C 7.316406 -10.785156 7.59375 -10.625 7.75 -10.46875 C 7.90625 -10.320312 8.035156 -10.175781 8.140625 -10.03125 Z M 4.265625 -5.609375 C 4.265625 -5.140625 4.445312 -4.710938 4.8125 -4.328125 C 5.1875 -3.953125 5.632812 -3.765625 6.15625 -3.765625 C 6.6875 -3.765625 7.125 -3.957031 7.46875 -4.34375 C 7.8125 -4.726562 7.984375 -5.148438 7.984375 -5.609375 C 7.984375 -6.078125 7.816406 -6.507812 7.484375 -6.90625 C 7.148438 -7.300781 6.703125 -7.5 6.140625 -7.5 C 5.585938 -7.5 5.132812 -7.300781 4.78125 -6.90625 C 4.4375 -6.507812 4.265625 -6.078125 4.265625 -5.609375 Z M 4.265625 -5.609375 "/></g></g></g><g fill="#f97316" fill-opacity="1"><g transform="translate(33.055516, 20.294542)"><g><path d="M 7.375 -7.453125 L 5.984375 -7.546875 L 5.984375 -4.609375 C 5.984375 -4.222656 6.039062 -3.941406 6.15625 -3.765625 C 6.28125 -3.597656 6.507812 -3.515625 6.84375 -3.515625 C 7.1875 -3.515625 7.445312 -3.503906 7.625 -3.484375 C 7.800781 -3.460938 7.988281 -3.394531 8.1875 -3.28125 C 8.507812 -3.09375 8.671875 -2.617188 8.671875 -1.859375 C 8.671875 -0.960938 8.472656 -0.414062 8.078125 -0.21875 C 7.859375 -0.113281 7.664062 -0.0507812 7.5 -0.03125 C 7.34375 -0.0078125 7.109375 0 6.796875 0 C 5.316406 0 4.191406 -0.332031 3.421875 -1 C 2.660156 -1.664062 2.28125 -2.796875 2.28125 -4.390625 L 2.28125 -7.546875 C 2.007812 -7.503906 1.71875 -7.484375 1.40625 -7.484375 C 1.09375 -7.484375 0.832031 -7.601562 0.625 -7.84375 C 0.414062 -8.082031 0.3125 -8.492188 0.3125 -9.078125 C 0.3125 -9.660156 0.347656 -10.082031 0.421875 -10.34375 C 0.492188 -10.601562 0.59375 -10.789062 0.71875 -10.90625 C 0.945312 -11.09375 1.234375 -11.1875 1.578125 -11.1875 L 2.28125 -11.109375 L 2.28125 -13.296875 C 2.28125 -13.628906 2.289062 -13.875 2.3125 -14.03125 C 2.332031 -14.1875 2.398438 -14.351562 2.515625 -14.53125 C 2.703125 -14.882812 3.25 -15.0625 4.15625 -15.0625 C 5.125 -15.0625 5.695312 -14.800781 5.875 -14.28125 C 5.945312 -14.050781 5.984375 -13.6875 5.984375 -13.1875 L 5.984375 -11.109375 C 6.609375 -11.160156 7.082031 -11.1875 7.40625 -11.1875 C 7.726562 -11.1875 7.96875 -11.175781 8.125 -11.15625 C 8.289062 -11.132812 8.484375 -11.066406 8.703125 -10.953125 C 9.066406 -10.765625 9.25 -10.21875 9.25 -9.3125 C 9.25 -8.414062 9.054688 -7.867188 8.671875 -7.671875 C 8.460938 -7.566406 8.273438 -7.503906 8.109375 -7.484375 C 7.941406 -7.460938 7.695312 -7.453125 7.375 -7.453125 Z M 7.375 -7.453125 "/></g></g></g><g fill="#f97316" fill-opacity="1"><g transform="translate(42.196502, 20.294542)"><g><path d="M 11.671875 -6.953125 C 11.671875 -6.078125 11.453125 -5.429688 11.015625 -5.015625 C 10.585938 -4.597656 10.113281 -4.390625 9.59375 -4.390625 L 4.546875 -4.390625 C 4.546875 -3.992188 4.78125 -3.660156 5.25 -3.390625 C 5.71875 -3.117188 6.1875 -2.984375 6.65625 -2.984375 C 7.476562 -2.984375 8.125 -3.066406 8.59375 -3.234375 L 8.828125 -3.328125 C 9.160156 -3.484375 9.441406 -3.5625 9.671875 -3.5625 C 10.128906 -3.5625 10.519531 -3.238281 10.84375 -2.59375 C 11.03125 -2.21875 11.125 -1.894531 11.125 -1.625 C 11.125 -0.351562 9.609375 0.28125 6.578125 0.28125 C 5.535156 0.28125 4.601562 0.0976562 3.78125 -0.265625 C 2.96875 -0.628906 2.332031 -1.109375 1.875 -1.703125 C 0.976562 -2.859375 0.53125 -4.144531 0.53125 -5.5625 C 0.53125 -7.351562 1.109375 -8.785156 2.265625 -9.859375 C 3.421875 -10.929688 4.867188 -11.46875 6.609375 -11.46875 C 8.578125 -11.46875 10.023438 -10.769531 10.953125 -9.375 C 11.429688 -8.632812 11.671875 -7.828125 11.671875 -6.953125 Z M 7.1875 -6.328125 C 7.71875 -6.328125 7.984375 -6.554688 7.984375 -7.015625 C 7.984375 -7.335938 7.859375 -7.597656 7.609375 -7.796875 C 7.367188 -7.992188 7.015625 -8.09375 6.546875 -8.09375 C 6.085938 -8.09375 5.628906 -7.90625 5.171875 -7.53125 C 4.722656 -7.15625 4.5 -6.753906 4.5 -6.328125 Z M 7.1875 -6.328125 "/></g></g></g><g fill="#f97316" fill-opacity="1"><g transform="translate(53.766544, 20.294542)"><g><path d="M 15.21875 -11.140625 C 16.125 -10.742188 16.578125 -10.253906 16.578125 -9.671875 C 16.578125 -9.429688 16.460938 -9.046875 16.234375 -8.515625 C 16.015625 -7.984375 15.828125 -7.519531 15.671875 -7.125 L 13.3125 -1.40625 C 13.101562 -0.78125 12.75 -0.335938 12.25 -0.078125 C 12.039062 0.015625 11.769531 0.0625 11.4375 0.0625 C 11.113281 0.0625 10.796875 -0.0625 10.484375 -0.3125 C 10.179688 -0.5625 9.984375 -0.8125 9.890625 -1.0625 L 9.71875 -1.421875 C 9.601562 -1.710938 9.1875 -2.820312 8.46875 -4.75 C 8.320312 -4.40625 8.109375 -3.847656 7.828125 -3.078125 C 7.554688 -2.304688 7.378906 -1.820312 7.296875 -1.625 C 7.222656 -1.4375 7.175781 -1.3125 7.15625 -1.25 C 7.132812 -1.1875 7.070312 -1.066406 6.96875 -0.890625 C 6.863281 -0.722656 6.75 -0.578125 6.625 -0.453125 C 6.28125 -0.109375 5.890625 0.0625 5.453125 0.0625 C 5.015625 0.0625 4.644531 -0.0625 4.34375 -0.3125 C 4.050781 -0.5625 3.851562 -0.8125 3.75 -1.0625 L 0.53125 -8.90625 C 0.382812 -9.332031 0.3125 -9.609375 0.3125 -9.734375 C 0.3125 -10.304688 0.71875 -10.753906 1.53125 -11.078125 C 1.988281 -11.265625 2.359375 -11.359375 2.640625 -11.359375 C 2.921875 -11.359375 3.148438 -11.296875 3.328125 -11.171875 C 3.515625 -11.054688 3.640625 -10.9375 3.703125 -10.8125 C 3.773438 -10.695312 3.832031 -10.570312 3.875 -10.4375 C 4.113281 -9.875 4.617188 -8.539062 5.390625 -6.4375 L 6.65625 -9.890625 C 6.738281 -10.171875 6.894531 -10.421875 7.125 -10.640625 C 7.53125 -11.046875 7.945312 -11.25 8.375 -11.25 C 8.800781 -11.25 9.164062 -11.132812 9.46875 -10.90625 C 9.78125 -10.6875 9.992188 -10.460938 10.109375 -10.234375 L 10.265625 -9.875 C 10.984375 -7.882812 11.40625 -6.742188 11.53125 -6.453125 L 12.828125 -10 C 13.171875 -10.90625 13.679688 -11.359375 14.359375 -11.359375 C 14.628906 -11.359375 14.914062 -11.285156 15.21875 -11.140625 Z M 15.21875 -11.140625 "/></g></g></g><g fill="#f97316" fill-opacity="1"><g transform="translate(70.663631, 20.294542)"><g><path d="M 0.859375 -9.359375 C 0.859375 -9.679688 0.867188 -9.925781 0.890625 -10.09375 C 0.910156 -10.257812 0.96875 -10.445312 1.0625 -10.65625 C 1.257812 -11.019531 1.816406 -11.203125 2.734375 -11.203125 C 3.410156 -11.203125 3.890625 -11.082031 4.171875 -10.84375 C 4.421875 -10.644531 4.550781 -10.34375 4.5625 -9.9375 C 4.570312 -9.789062 4.578125 -9.582031 4.578125 -9.3125 L 4.578125 -1.859375 C 4.578125 -1.523438 4.566406 -1.273438 4.546875 -1.109375 C 4.523438 -0.953125 4.457031 -0.765625 4.34375 -0.546875 C 4.164062 -0.179688 3.617188 0 2.703125 0 C 1.804688 0 1.257812 -0.191406 1.0625 -0.578125 C 0.96875 -0.785156 0.910156 -0.96875 0.890625 -1.125 C 0.867188 -1.28125 0.859375 -1.53125 0.859375 -1.875 Z M 4.359375 -13.3125 C 4.253906 -13.101562 4.066406 -12.957031 3.796875 -12.875 C 3.523438 -12.789062 3.164062 -12.75 2.71875 -12.75 C 2.269531 -12.75 1.910156 -12.789062 1.640625 -12.875 C 1.367188 -12.957031 1.179688 -13.101562 1.078125 -13.3125 C 0.972656 -13.53125 0.910156 -13.71875 0.890625 -13.875 C 0.867188 -14.039062 0.859375 -14.285156 0.859375 -14.609375 C 0.859375 -14.941406 0.867188 -15.1875 0.890625 -15.34375 C 0.910156 -15.507812 0.96875 -15.695312 1.0625 -15.90625 C 1.257812 -16.28125 1.816406 -16.46875 2.734375 -16.46875 C 3.628906 -16.46875 4.164062 -16.28125 4.34375 -15.90625 C 4.457031 -15.6875 4.523438 -15.492188 4.546875 -15.328125 C 4.566406 -15.171875 4.578125 -14.925781 4.578125 -14.59375 C 4.578125 -14.269531 4.566406 -14.023438 4.546875 -13.859375 C 4.523438 -13.703125 4.460938 -13.519531 4.359375 -13.3125 Z M 4.359375 -13.3125 "/></g></g></g><g fill="#f97316" fill-opacity="1"><g transform="translate(76.097121, 20.294542)"><g><path d="M 0.9375 -1 C 0.664062 -1.164062 0.53125 -1.429688 0.53125 -1.796875 C 0.53125 -2.171875 0.800781 -2.738281 1.34375 -3.5 C 1.5 -3.738281 1.75 -3.859375 2.09375 -3.859375 C 2.445312 -3.859375 2.921875 -3.679688 3.515625 -3.328125 C 4.109375 -2.984375 4.648438 -2.8125 5.140625 -2.8125 C 6.003906 -2.8125 6.4375 -2.984375 6.4375 -3.328125 C 6.4375 -3.597656 5.960938 -3.796875 5.015625 -3.921875 C 4.117188 -4.046875 3.226562 -4.378906 2.34375 -4.921875 C 1.925781 -5.179688 1.582031 -5.582031 1.3125 -6.125 C 1.050781 -6.675781 0.921875 -7.328125 0.921875 -8.078125 C 0.921875 -10.316406 2.460938 -11.4375 5.546875 -11.4375 C 6.546875 -11.4375 7.582031 -11.195312 8.65625 -10.71875 C 9.15625 -10.488281 9.40625 -10.203125 9.40625 -9.859375 C 9.40625 -9.523438 9.25 -9.109375 8.9375 -8.609375 C 8.625 -8.109375 8.300781 -7.859375 7.96875 -7.859375 C 7.800781 -7.859375 7.484375 -7.960938 7.015625 -8.171875 C 6.554688 -8.390625 6.054688 -8.5 5.515625 -8.5 C 4.679688 -8.5 4.265625 -8.34375 4.265625 -8.03125 C 4.265625 -7.601562 4.75 -7.328125 5.71875 -7.203125 C 6.65625 -7.097656 7.5625 -6.828125 8.4375 -6.390625 C 8.851562 -6.191406 9.195312 -5.847656 9.46875 -5.359375 C 9.75 -4.867188 9.890625 -4.253906 9.890625 -3.515625 C 9.890625 -2.773438 9.75 -2.144531 9.46875 -1.625 C 9.195312 -1.113281 8.8125 -0.726562 8.3125 -0.46875 C 7.40625 -0.03125 6.265625 0.1875 4.890625 0.1875 C 3.515625 0.1875 2.195312 -0.207031 0.9375 -1 Z M 0.9375 -1 "/></g></g></g><g clip-path="url(#ab4ae2195a)"><g fill="#f97316" fill-opacity="1"><g transform="translate(86.516634, 20.294542)"><g><path d="M 11.671875 -6.953125 C 11.671875 -6.078125 11.453125 -5.429688 11.015625 -5.015625 C 10.585938 -4.597656 10.113281 -4.390625 9.59375 -4.390625 L 4.546875 -4.390625 C 4.546875 -3.992188 4.78125 -3.660156 5.25 -3.390625 C 5.71875 -3.117188 6.1875 -2.984375 6.65625 -2.984375 C 7.476562 -2.984375 8.125 -3.066406 8.59375 -3.234375 L 8.828125 -3.328125 C 9.160156 -3.484375 9.441406 -3.5625 9.671875 -3.5625 C 10.128906 -3.5625 10.519531 -3.238281 10.84375 -2.59375 C 11.03125 -2.21875 11.125 -1.894531 11.125 -1.625 C 11.125 -0.351562 9.609375 0.28125 6.578125 0.28125 C 5.535156 0.28125 4.601562 0.0976562 3.78125 -0.265625 C 2.96875 -0.628906 2.332031 -1.109375 1.875 -1.703125 C 0.976562 -2.859375 0.53125 -4.144531 0.53125 -5.5625 C 0.53125 -7.351562 1.109375 -8.785156 2.265625 -9.859375 C 3.421875 -10.929688 4.867188 -11.46875 6.609375 -11.46875 C 8.578125 -11.46875 10.023438 -10.769531 10.953125 -9.375 C 11.429688 -8.632812 11.671875 -7.828125 11.671875 -6.953125 Z M 7.1875 -6.328125 C 7.71875 -6.328125 7.984375 -6.554688 7.984375 -7.015625 C 7.984375 -7.335938 7.859375 -7.597656 7.609375 -7.796875 C 7.367188 -7.992188 7.015625 -8.09375 6.546875 -8.09375 C 6.085938 -8.09375 5.628906 -7.90625 5.171875 -7.53125 C 4.722656 -7.15625 4.5 -6.753906 4.5 -6.328125 Z M 7.1875 -6.328125 "/></g></g></g></g></g></g><g clip-path="url(#e451d4f0a4)"><path stroke-linecap="butt" transform="matrix(0.75, 0, 0, 0.75, -20.38251, -11.095192)" fill="none" stroke-linejoin="miter" d="M 86.286056 39.376922 C 84.916264 32.184214 80.786056 25.580047 74.822514 21.330047 C 65.327722 14.559214 52.536056 14.283172 42.624597 20.236297 C 40.770431 21.350881 39.135014 22.590464 37.713139 23.965464 C 30.848556 30.600881 27.905847 39.986297 29.374597 49.350881 C 31.036056 59.934214 38.687097 68.835256 48.858972 72.173797 C 54.343347 73.975881 59.885014 74.111297 65.473556 72.580047 C 74.629806 70.069631 81.832931 63.350881 85.072514 54.486297 C 86.822514 49.699839 87.233972 44.314422 86.286056 39.376922 " stroke="#7d98c5" stroke-width="2" stroke-opacity="1" stroke-miterlimit="4"/></g><g clip-path="url(#4714ce101b)"><path stroke-linecap="butt" transform="matrix(0.75, 0, 0, 0.75, -20.38251, -11.095192)" fill="none" stroke-linejoin="miter" d="M 79.202722 78.991506 C 79.202722 78.788381 79.166264 78.590464 79.088139 78.397756 C 79.004806 78.205047 78.895431 78.038381 78.749597 77.892547 C 78.603764 77.746714 78.431889 77.632131 78.244389 77.554006 C 78.051681 77.475881 77.853764 77.434214 77.645431 77.434214 C 77.437097 77.434214 77.239181 77.475881 77.051681 77.554006 C 76.858972 77.632131 76.692306 77.746714 76.541264 77.892547 C 76.395431 78.038381 76.286056 78.205047 76.207931 78.397756 C 76.124597 78.590464 76.088139 78.788381 76.088139 78.991506 C 76.088139 79.199839 76.124597 79.397756 76.207931 79.590464 C 76.286056 79.783172 76.395431 79.949839 76.541264 80.095672 C 76.692306 80.241506 76.858972 80.356089 77.051681 80.434214 C 77.239181 80.512339 77.437097 80.554006 77.645431 80.554006 C 77.853764 80.554006 78.051681 80.512339 78.244389 80.434214 C 78.431889 80.356089 78.603764 80.241506 78.749597 80.095672 C 78.895431 79.949839 79.004806 79.783172 79.088139 79.590464 C 79.166264 79.397756 79.202722 79.199839 79.202722 78.991506 " stroke="#7e8080" stroke-width="2" stroke-opacity="1" stroke-miterlimit="4"/></g><path stroke-linecap="butt" transform="matrix(0.75, 0, 0, 0.75, -20.38251, -11.095192)" fill="none" stroke-linejoin="miter" d="M 30.317306 77.522756 C 30.317306 77.501922 30.306889 77.491506 30.280847 77.491506 L 27.775639 77.491506 C 27.754806 77.491506 27.744389 77.501922 27.744389 77.522756 L 27.744389 91.475881 C 27.744389 91.496714 27.754806 91.512339 27.775639 91.512339 L 30.280847 91.512339 C 30.306889 91.512339 30.317306 91.496714 30.317306 91.475881 L 30.317306 77.522756 " stroke="#7e8080" stroke-width="2" stroke-opacity="1" stroke-miterlimit="4"/><path stroke-linecap="butt" transform="matrix(0.75, 0, 0, 0.75, -20.38251, -11.095192)" fill="none" stroke-linejoin="miter" d="M 41.260014 25.288381 C 41.119389 25.298797 40.983972 25.382131 40.848556 25.548797 C 40.843347 25.554006 40.843347 25.564422 40.843347 25.569631 C 40.848556 25.595672 40.858972 25.606089 40.879806 25.606089 " stroke="#113768" stroke-width="2" stroke-opacity="1" stroke-miterlimit="4"/><path stroke-linecap="butt" transform="matrix(0.75, 0, 0, 0.75, -20.38251, -11.095192)" fill="none" stroke-linejoin="miter" d="M 40.879806 25.606089 L 40.874597 25.647756 C 40.864181 25.689422 40.879806 25.720672 40.916264 25.741506 C 41.322514 26.012339 41.707931 26.241506 42.072514 26.434214 C 45.098556 28.027964 48.270431 28.866506 51.780847 29.304006 C 54.838139 29.679006 58.062097 29.720672 61.025639 29.564422 C 65.864181 29.309214 70.676681 28.324839 74.843347 25.772756 C 74.942306 25.710256 74.947514 25.637339 74.853764 25.564422 C 71.135014 22.465464 66.994389 20.522756 62.437097 19.736297 C 54.843347 18.429006 47.260014 20.408172 41.260014 25.288381 " stroke="#7d98c5" stroke-width="2" stroke-opacity="1" stroke-miterlimit="4"/><path stroke-linecap="butt" transform="matrix(0.75, 0, 0, 0.75, -20.38251, -11.095192)" fill="none" stroke-linejoin="miter" d="M 40.879806 25.606089 L 41.260014 25.288381 " stroke="#8e999c" stroke-width="2" stroke-opacity="1" stroke-miterlimit="4"/><path stroke-linecap="butt" transform="matrix(0.75, 0, 0, 0.75, -20.38251, -11.095192)" fill="none" stroke-linejoin="miter" d="M 73.687097 57.080047 C 73.650639 57.038381 73.614181 57.048797 73.567306 57.100881 C 70.858972 60.444631 67.437097 62.720672 63.296472 63.929006 C 63.244389 63.944631 63.228764 63.981089 63.260014 64.038381 " stroke="#113768" stroke-width="2" stroke-opacity="1" stroke-miterlimit="4"/><g clip-path="url(#d4b70b88ad)"><path stroke-linecap="butt" transform="matrix(0.75, 0, 0, 0.75, -20.38251, -11.095192)" fill="none" stroke-linejoin="miter" d="M 63.260014 64.038381 C 60.822514 64.705047 58.358972 64.918589 55.879806 64.679006 C 43.327722 63.481089 34.343347 50.330047 38.129806 38.189422 C 38.754806 36.184214 39.780847 34.429006 41.207931 32.929006 C 41.244389 32.882131 41.249597 32.840464 41.207931 32.793589 C 40.155847 31.501922 39.437097 30.043589 39.062097 28.408172 C 39.004806 28.173797 38.968347 27.929006 38.947514 27.663381 C 38.942306 27.637339 38.931889 27.616506 38.905847 27.611297 C 38.879806 27.600881 38.858972 27.606089 38.838139 27.626922 C 34.926681 32.080047 32.577722 37.804006 32.343347 43.736297 C 32.244389 46.210256 32.525639 48.694631 33.187097 51.184214 C 34.421472 55.835256 36.801681 59.845672 40.327722 63.220672 C 43.244389 66.012339 46.546472 67.975881 50.228764 69.116506 C 53.655847 70.173797 57.129806 70.507131 60.661056 70.111297 C 65.317306 69.590464 69.963139 67.705047 73.655847 64.783172 C 80.473556 59.371714 84.108972 50.991506 83.312097 42.293589 C 82.900639 37.751922 81.145431 33.371714 78.478764 29.658172 C 77.983972 28.970672 77.457931 28.319631 76.900639 27.710256 C 76.890222 27.699839 76.874597 27.694631 76.864181 27.699839 C 76.848556 27.705047 76.838139 27.715464 76.838139 27.731089 C 76.572514 29.554006 75.655847 31.361297 74.483972 32.772756 C 74.452722 32.814422 74.452722 32.850881 74.494389 32.887339 C 78.447514 36.850881 79.218347 43.080047 77.983972 48.324839 C 77.218347 51.564422 75.786056 54.481089 73.687097 57.080047 " stroke="#7d98c5" stroke-width="2" stroke-opacity="1" stroke-miterlimit="4"/></g><path stroke-linecap="butt" transform="matrix(0.75, 0, 0, 0.75, -20.38251, -11.095192)" fill="none" stroke-linejoin="miter" d="M 63.260014 64.038381 C 67.244389 62.887339 70.582931 60.741506 73.275639 57.600881 C 73.421472 57.429006 73.556889 57.251922 73.687097 57.080047 " stroke="#8e999c" stroke-width="2" stroke-opacity="1" stroke-miterlimit="4"/><path stroke-linecap="butt" transform="matrix(0.75, 0, 0, 0.75, -20.38251, -11.095192)" fill="none" stroke-linejoin="miter" d="M 57.879806 45.590464 C 57.874597 45.611297 57.858972 45.621714 57.838139 45.621714 C 57.812097 45.621714 57.801681 45.611297 57.791264 45.590464 C 56.452722 42.902964 55.202722 40.429006 54.041264 38.168589 C 52.702722 35.569631 50.343347 34.121714 47.473556 34.168589 C 45.306889 34.205047 43.603764 35.095672 42.364181 36.845672 C 39.765222 40.527964 40.608972 45.455047 44.015222 48.304006 C 46.817306 50.642547 51.332931 54.434214 57.562097 59.679006 C 57.780847 59.866506 57.921472 59.934214 58.155847 59.736297 C 60.223556 57.970672 64.171472 54.663381 69.989181 49.809214 C 71.473556 48.574839 72.364181 47.777964 72.661056 47.429006 C 73.582931 46.356089 74.228764 45.121714 74.598556 43.736297 C 75.770431 39.361297 73.181889 34.251922 68.223556 34.168589 C 66.025639 34.132131 64.077722 34.975881 62.687097 36.689422 C 62.364181 37.085256 61.963139 37.736297 61.478764 38.642547 C 60.343347 40.762339 59.145431 43.080047 57.879806 45.590464 " stroke="#7d98c5" stroke-width="2" stroke-opacity="1" stroke-miterlimit="4"/><path stroke-linecap="butt" transform="matrix(0.75, 0, 0, 0.75, -20.38251, -11.095192)" fill="none" stroke-linejoin="miter" d="M 57.890222 55.439422 C 59.582931 53.231089 61.536056 50.673797 63.744389 47.762339 C 63.911056 47.543589 64.051681 47.382131 64.181889 47.272756 C 64.317306 47.147756 64.478764 47.080047 64.661056 47.059214 C 65.062097 47.012339 65.343347 46.970672 65.520431 46.939422 C 66.666264 46.715464 67.786056 46.179006 68.624597 45.335256 C 69.494389 44.460256 70.301681 43.606089 71.760014 42.054006 C 72.405847 41.366506 71.390222 40.350881 70.853764 40.918589 C 68.999597 42.882131 67.952722 43.986297 67.707931 44.241506 C 67.681889 44.267547 67.655847 44.267547 67.629806 44.241506 L 67.046472 43.600881 C 67.010014 43.559214 67.010014 43.522756 67.046472 43.481089 C 67.812097 42.684214 68.770431 41.679006 69.926681 40.460256 C 70.181889 40.189422 70.322514 40.022756 70.353764 39.960256 C 70.551681 39.543589 70.145431 39.043589 69.739181 38.955047 C 69.447514 38.892547 69.233972 39.074839 69.020431 39.309214 C 68.426681 39.944631 67.416264 41.022756 65.989181 42.543589 C 65.978764 42.559214 65.968347 42.559214 65.957931 42.543589 L 65.306889 41.835256 C 65.280847 41.804006 65.280847 41.777964 65.312097 41.746714 L 68.666264 38.288381 C 68.775639 38.168589 68.812097 38.033172 68.775639 37.882131 C 68.614181 37.194631 67.848556 36.710256 67.233972 37.277964 C 66.504806 37.955047 65.681889 38.772756 64.770431 39.720672 C 63.494389 41.059214 62.515222 42.158172 62.525639 44.054006 C 62.530847 44.397756 62.536056 44.830047 62.546472 45.345672 C 62.546472 45.387339 62.536056 45.418589 62.520431 45.455047 C 62.463139 45.569631 62.374597 45.684214 62.260014 45.793589 C 60.697514 47.345672 59.265222 48.783172 57.947514 50.100881 C 57.911056 50.137339 57.874597 50.137339 57.838139 50.100881 L 53.108972 45.517547 C 53.056889 45.470672 53.036056 45.408172 53.036056 45.340464 C 53.041264 45.017547 53.051681 44.689422 53.072514 44.366506 C 53.150639 42.975881 52.832931 41.679006 52.124597 40.475881 C 51.270431 39.017547 49.707931 37.366506 47.989181 37.184214 C 46.614181 37.038381 45.536056 37.751922 44.921472 38.960256 C 44.739181 39.314422 44.619389 39.793589 44.562097 40.402964 C 44.431889 41.767547 44.994389 43.283172 45.775639 44.382131 C 46.931889 46.012339 49.015222 46.960256 50.999597 47.069631 C 51.327722 47.090464 51.598556 47.241506 51.817306 47.527964 C 54.405847 50.929006 56.405847 53.564422 57.827722 55.439422 C 57.848556 55.465464 57.869389 55.465464 57.890222 55.439422 " stroke="#7d98c5" stroke-width="2" stroke-opacity="1" stroke-miterlimit="4"/><g clip-path="url(#ca7aaad341)"><path stroke-linecap="butt" transform="matrix(0.75, 0, 0, 0.75, -20.38251, -11.095192)" fill="none" stroke-linejoin="miter" d="M 79.082931 78.996714 C 79.082931 78.809214 79.046472 78.621714 78.973556 78.449839 C 78.900639 78.272756 78.796472 78.116506 78.661056 77.981089 C 78.525639 77.845672 78.369389 77.741506 78.197514 77.668589 C 78.020431 77.595672 77.838139 77.559214 77.645431 77.559214 C 77.457931 77.559214 77.270431 77.595672 77.098556 77.668589 C 76.921472 77.741506 76.765222 77.845672 76.629806 77.981089 C 76.494389 78.116506 76.390222 78.272756 76.317306 78.449839 C 76.244389 78.621714 76.207931 78.809214 76.207931 78.996714 C 76.207931 79.189422 76.244389 79.371714 76.317306 79.548797 C 76.390222 79.725881 76.494389 79.876922 76.629806 80.012339 C 76.765222 80.147756 76.921472 80.251922 77.098556 80.324839 C 77.270431 80.397756 77.457931 80.434214 77.645431 80.434214 C 77.838139 80.434214 78.020431 80.397756 78.197514 80.324839 C 78.369389 80.251922 78.525639 80.147756 78.661056 80.012339 C 78.796472 79.876922 78.900639 79.725881 78.973556 79.548797 C 79.046472 79.371714 79.082931 79.189422 79.082931 78.996714 " stroke="#121e23" stroke-width="2" stroke-opacity="1" stroke-miterlimit="4"/></g><path stroke-linecap="butt" transform="matrix(0.75, 0, 0, 0.75, -20.38251, -11.095192)" fill="none" stroke-linejoin="miter" d="M 30.197514 77.694631 C 30.197514 77.637339 30.166264 77.611297 30.114181 77.611297 L 27.989181 77.606089 C 27.931889 77.606089 27.905847 77.637339 27.905847 77.689422 L 27.885014 91.335256 C 27.885014 91.387339 27.911056 91.418589 27.963139 91.418589 L 30.088139 91.418589 C 30.145431 91.418589 30.171472 91.392547 30.171472 91.335256 L 30.197514 77.694631 " stroke="#121e23" stroke-width="2" stroke-opacity="1" stroke-miterlimit="4"/><g clip-path="url(#7a8951486e)"><path fill="#ffffff" d="M 66.371094 -11.09375 L 66.371094 75.660156 L -20.382812 75.660156 L -20.382812 -11.09375 Z M 44.332031 18.4375 C 43.304688 13.042969 40.207031 8.089844 35.734375 4.902344 C 28.613281 -0.175781 19.019531 -0.382812 11.585938 4.082031 C 10.195312 4.917969 8.96875 5.847656 7.902344 6.878906 C 2.753906 11.855469 0.546875 18.894531 1.648438 25.917969 C 2.894531 33.855469 8.632812 40.53125 16.261719 43.035156 C 20.375 44.386719 24.53125 44.488281 28.722656 43.339844 C 35.589844 41.457031 40.992188 36.417969 43.421875 29.769531 C 44.734375 26.179688 45.042969 22.140625 44.332031 18.4375 Z M 39.019531 48.148438 C 39.019531 47.996094 38.992188 47.847656 38.933594 47.703125 C 38.871094 47.558594 38.789062 47.433594 38.679688 47.324219 C 38.570312 47.214844 38.441406 47.128906 38.300781 47.070312 C 38.15625 47.011719 38.007812 46.980469 37.851562 46.980469 C 37.695312 46.980469 37.546875 47.011719 37.40625 47.070312 C 37.261719 47.128906 37.136719 47.214844 37.023438 47.324219 C 36.914062 47.433594 36.832031 47.558594 36.773438 47.703125 C 36.710938 47.847656 36.683594 47.996094 36.683594 48.148438 C 36.683594 48.304688 36.710938 48.453125 36.773438 48.597656 C 36.832031 48.742188 36.914062 48.867188 37.023438 48.976562 C 37.136719 49.085938 37.261719 49.171875 37.40625 49.230469 C 37.546875 49.289062 37.695312 49.320312 37.851562 49.320312 C 38.007812 49.320312 38.15625 49.289062 38.300781 49.230469 C 38.441406 49.171875 38.570312 49.085938 38.679688 48.976562 C 38.789062 48.867188 38.871094 48.742188 38.933594 48.597656 C 38.992188 48.453125 39.019531 48.304688 39.019531 48.148438 Z M 2.355469 47.046875 C 2.355469 47.03125 2.347656 47.023438 2.328125 47.023438 L 0.449219 47.023438 C 0.433594 47.023438 0.425781 47.03125 0.425781 47.046875 L 0.425781 57.511719 C 0.425781 57.527344 0.433594 57.539062 0.449219 57.539062 L 2.328125 57.539062 C 2.347656 57.539062 2.355469 57.527344 2.355469 57.511719 Z M 16.46875 50.183594 L 14.488281 50.183594 C 14.460938 50.183594 14.445312 50.167969 14.445312 50.136719 L 14.445312 48.238281 C 14.445312 48.214844 14.433594 48.199219 14.410156 48.199219 L 12.597656 48.199219 C 12.578125 48.199219 12.566406 48.210938 12.566406 48.234375 L 12.566406 50.132812 C 12.566406 50.164062 12.546875 50.183594 12.515625 50.183594 L 11.335938 50.183594 C 11.316406 50.183594 11.304688 50.191406 11.304688 50.214844 L 11.304688 51.90625 C 11.304688 51.9375 11.320312 51.953125 11.351562 51.953125 L 12.5 51.953125 C 12.542969 51.953125 12.566406 51.972656 12.566406 52.019531 C 12.566406 53.128906 12.566406 54.292969 12.566406 55.515625 C 12.5625 56.5625 13.160156 57.246094 14.148438 57.542969 C 14.875 57.761719 15.859375 57.789062 16.511719 57.355469 C 16.539062 57.335938 16.546875 57.3125 16.535156 57.28125 C 16.355469 56.847656 16.246094 56.398438 16.210938 55.921875 C 16.207031 55.886719 16.1875 55.871094 16.152344 55.878906 C 15.566406 55.996094 14.835938 56.066406 14.523438 55.492188 C 14.460938 55.375 14.433594 55.121094 14.441406 54.722656 C 14.445312 54.558594 14.445312 53.652344 14.445312 52.011719 C 14.445312 51.972656 14.464844 51.953125 14.503906 51.953125 L 16.472656 51.953125 C 16.503906 51.953125 16.519531 51.9375 16.519531 51.90625 L 16.519531 50.230469 C 16.519531 50.199219 16.503906 50.183594 16.46875 50.183594 Z M 44.542969 52.390625 L 46.027344 51.601562 C 46.078125 51.574219 46.085938 51.535156 46.054688 51.488281 C 45.53125 50.691406 44.808594 50.199219 43.882812 50.011719 C 43.210938 49.875 42.570312 49.894531 41.960938 50.066406 C 40.925781 50.363281 40.128906 51.144531 40.039062 52.230469 C 39.925781 53.554688 40.835938 54.289062 42.019531 54.496094 C 42.457031 54.570312 42.890625 54.644531 43.324219 54.714844 C 43.792969 54.785156 44.503906 55.074219 44.199219 55.714844 C 43.863281 56.414062 42.78125 56.304688 42.195312 56.039062 C 41.800781 55.859375 41.382812 55.414062 41.09375 55.101562 C 41.074219 55.082031 41.054688 55.078125 41.03125 55.097656 L 39.890625 56.140625 C 39.855469 56.171875 39.851562 56.207031 39.882812 56.242188 C 40.671875 57.222656 41.675781 57.714844 42.890625 57.726562 C 43.367188 57.730469 43.796875 57.683594 44.175781 57.582031 C 45.226562 57.300781 46.105469 56.539062 46.191406 55.402344 C 46.257812 54.507812 45.820312 53.757812 44.992188 53.425781 C 44.132812 53.082031 43.117188 53.027344 42.339844 52.800781 C 42.039062 52.714844 41.882812 52.527344 41.871094 52.238281 C 41.84375 51.558594 42.496094 51.40625 43.035156 51.445312 C 43.710938 51.492188 44.257812 51.703125 44.472656 52.363281 C 44.484375 52.398438 44.507812 52.410156 44.542969 52.390625 Z M -6.65625 56.742188 C -6.660156 56.730469 -6.660156 56.722656 -6.660156 56.710938 C -6.65625 56.667969 -6.636719 56.660156 -6.601562 56.683594 C -6.574219 56.699219 -6.550781 56.71875 -6.53125 56.746094 C -5.800781 57.515625 -4.699219 57.84375 -3.667969 57.695312 C -2.511719 57.53125 -1.652344 56.9375 -1.089844 55.914062 C -0.40625 54.671875 -0.46875 52.714844 -1.257812 51.53125 C -2.453125 49.742188 -4.964844 49.410156 -6.578125 50.832031 C -6.59375 50.847656 -6.613281 50.847656 -6.632812 50.839844 C -6.65625 50.832031 -6.664062 50.8125 -6.664062 50.792969 L -6.664062 50.179688 C -6.664062 50.148438 -6.679688 50.132812 -6.710938 50.132812 L -8.535156 50.132812 C -8.554688 50.132812 -8.5625 50.140625 -8.5625 50.15625 L -8.5625 60.25 C -8.5625 60.265625 -8.554688 60.273438 -8.535156 60.273438 L -6.679688 60.273438 C -6.667969 60.273438 -6.660156 60.265625 -6.660156 60.253906 Z M 8.609375 56.652344 C 8.640625 56.664062 8.660156 56.683594 8.667969 56.703125 L 8.667969 57.496094 C 8.667969 57.527344 8.683594 57.542969 8.714844 57.542969 L 10.503906 57.542969 C 10.535156 57.542969 10.550781 57.527344 10.550781 57.492188 C 10.550781 55.453125 10.550781 53.882812 10.550781 52.789062 C 10.550781 51.25 9.636719 50.238281 8.128906 50.007812 C 6.945312 49.824219 5.675781 50.070312 4.753906 50.871094 C 4.441406 51.140625 4.21875 51.453125 4.082031 51.808594 C 4.0625 51.863281 4.042969 52.027344 4.027344 52.304688 C 4.023438 52.335938 4.039062 52.351562 4.070312 52.355469 L 5.742188 52.585938 C 5.769531 52.589844 5.789062 52.574219 5.792969 52.546875 C 5.859375 52.101562 6.089844 51.808594 6.476562 51.664062 C 7.085938 51.4375 8.03125 51.453125 8.46875 52.046875 C 8.640625 52.28125 8.652344 52.65625 8.640625 52.960938 C 8.640625 52.984375 8.628906 52.996094 8.601562 52.996094 C 7.835938 53 7.097656 53.039062 6.390625 53.121094 C 5.398438 53.230469 4.054688 53.488281 3.597656 54.488281 C 3.089844 55.585938 3.589844 56.792969 4.648438 57.335938 C 6.046875 58.054688 7.527344 57.773438 8.609375 56.652344 Z M 18.914062 54.464844 C 18.90625 54.433594 18.917969 54.417969 18.949219 54.417969 L 24.382812 54.417969 C 24.394531 54.417969 24.398438 54.414062 24.402344 54.402344 C 24.414062 53.949219 24.394531 53.523438 24.335938 53.117188 C 24.082031 51.269531 22.679688 49.984375 20.8125 49.957031 C 19.597656 49.941406 18.613281 50.390625 17.855469 51.304688 C 17.125 52.183594 16.941406 53.320312 17.074219 54.425781 C 17.359375 56.816406 19.691406 58.175781 21.925781 57.589844 C 22.90625 57.332031 23.660156 56.707031 24.257812 55.898438 C 24.273438 55.875 24.269531 55.855469 24.246094 55.839844 C 23.78125 55.570312 23.363281 55.277344 22.988281 54.957031 C 22.964844 54.9375 22.941406 54.941406 22.925781 54.964844 C 22.269531 55.796875 21.628906 56.21875 20.539062 56.09375 C 19.679688 55.996094 19.058594 55.296875 18.914062 54.464844 Z M 48.71875 54.464844 C 48.714844 54.4375 48.726562 54.421875 48.757812 54.421875 L 54.191406 54.414062 C 54.203125 54.414062 54.210938 54.40625 54.210938 54.394531 C 54.222656 53.945312 54.203125 53.515625 54.144531 53.113281 C 53.886719 51.261719 52.480469 49.976562 50.613281 49.957031 C 49.402344 49.941406 48.414062 50.394531 47.660156 51.308594 C 46.929688 52.1875 46.746094 53.324219 46.878906 54.429688 C 47.167969 56.824219 49.503906 58.179688 51.742188 57.589844 C 52.722656 57.332031 53.476562 56.703125 54.070312 55.890625 C 54.085938 55.867188 54.082031 55.847656 54.058594 55.835938 C 53.59375 55.566406 53.175781 55.273438 52.796875 54.953125 C 52.773438 54.933594 52.753906 54.9375 52.734375 54.960938 C 52.082031 55.796875 51.441406 56.21875 50.347656 56.09375 C 49.488281 56 48.867188 55.300781 48.71875 54.464844 Z M 30.113281 52.679688 C 30.121094 52.667969 30.128906 52.660156 30.144531 52.65625 C 30.148438 52.65625 30.15625 52.65625 30.160156 52.660156 L 30.195312 52.6875 L 31.871094 57.507812 C 31.878906 57.535156 31.898438 57.546875 31.925781 57.546875 L 33.570312 57.546875 C 33.601562 57.546875 33.625 57.53125 33.632812 57.503906 L 36.105469 50.160156 C 36.113281 50.132812 36.105469 50.117188 36.074219 50.117188 L 34.164062 50.117188 C 34.132812 50.117188 34.113281 50.132812 34.105469 50.160156 L 32.683594 54.707031 C 32.660156 54.746094 32.636719 54.753906 32.617188 54.730469 L 31.027344 50.167969 C 31.015625 50.132812 30.996094 50.117188 30.960938 50.117188 L 29.3125 50.117188 C 29.277344 50.117188 29.257812 50.132812 29.246094 50.167969 L 27.652344 54.710938 C 27.648438 54.730469 27.632812 54.742188 27.609375 54.738281 C 27.589844 54.734375 27.578125 54.722656 27.574219 54.699219 C 27.5625 54.550781 27.519531 54.375 27.457031 54.167969 C 27.121094 53.078125 26.699219 51.738281 26.191406 50.148438 C 26.183594 50.128906 26.171875 50.121094 26.152344 50.121094 L 24.296875 50.121094 C 24.265625 50.121094 24.253906 50.136719 24.261719 50.164062 L 26.6875 57.488281 C 26.699219 57.523438 26.722656 57.539062 26.757812 57.539062 L 28.421875 57.539062 C 28.449219 57.539062 28.46875 57.523438 28.480469 57.496094 Z M 38.847656 50.140625 C 38.847656 50.125 38.839844 50.117188 38.828125 50.117188 L 36.957031 50.117188 C 36.945312 50.117188 36.9375 50.125 36.9375 50.140625 L 36.9375 57.511719 C 36.9375 57.523438 36.945312 57.53125 36.957031 57.53125 L 38.828125 57.53125 C 38.839844 57.53125 38.847656 57.523438 38.847656 57.511719 Z M 38.847656 50.140625 " fill-opacity="1" fill-rule="nonzero"/></g><path fill="#f97316" d="M 35.734375 4.902344 C 40.207031 8.089844 43.304688 13.042969 44.332031 18.4375 C 45.042969 22.140625 44.734375 26.179688 43.421875 29.769531 C 40.992188 36.417969 35.589844 41.457031 28.722656 43.339844 C 24.53125 44.488281 20.375 44.386719 16.261719 43.035156 C 8.632812 40.53125 2.894531 33.855469 1.648438 25.917969 C 0.546875 18.894531 2.753906 11.855469 7.902344 6.878906 C 8.96875 5.847656 10.195312 4.917969 11.585938 4.082031 C 19.019531 -0.382812 28.613281 -0.175781 35.734375 4.902344 Z M 10.5625 7.871094 C 10.457031 7.878906 10.355469 7.941406 10.253906 8.066406 C 10.25 8.070312 10.25 8.078125 10.25 8.082031 C 10.253906 8.101562 10.261719 8.109375 10.277344 8.109375 L 10.273438 8.140625 C 10.265625 8.171875 10.277344 8.195312 10.304688 8.210938 C 10.609375 8.414062 10.898438 8.585938 11.171875 8.730469 C 13.441406 9.925781 15.820312 10.554688 18.453125 10.882812 C 20.746094 11.164062 23.164062 11.195312 25.386719 11.078125 C 29.015625 10.886719 32.625 10.148438 35.75 8.234375 C 35.824219 8.1875 35.828125 8.132812 35.757812 8.078125 C 32.96875 5.753906 29.863281 4.296875 26.445312 3.707031 C 20.75 2.726562 15.0625 4.210938 10.5625 7.871094 Z M 34.882812 31.714844 C 34.855469 31.683594 34.828125 31.691406 34.792969 31.730469 C 32.761719 34.238281 30.195312 35.945312 27.089844 36.851562 C 27.050781 36.863281 27.039062 36.890625 27.0625 36.933594 C 25.234375 37.433594 23.386719 37.59375 21.527344 37.414062 C 12.113281 36.515625 5.375 26.652344 8.214844 17.546875 C 8.683594 16.042969 9.453125 14.726562 10.523438 13.601562 C 10.550781 13.566406 10.554688 13.535156 10.523438 13.5 C 9.734375 12.53125 9.195312 11.4375 8.914062 10.210938 C 8.871094 10.035156 8.84375 9.851562 8.828125 9.652344 C 8.824219 9.632812 8.816406 9.617188 8.796875 9.613281 C 8.777344 9.605469 8.761719 9.609375 8.746094 9.625 C 5.8125 12.964844 4.050781 17.257812 3.875 21.707031 C 3.800781 23.5625 4.011719 25.425781 4.507812 27.292969 C 5.433594 30.78125 7.21875 33.789062 9.863281 36.320312 C 12.050781 38.414062 14.527344 39.886719 17.289062 40.742188 C 19.859375 41.535156 22.464844 41.785156 25.113281 41.488281 C 28.605469 41.097656 32.089844 39.683594 34.859375 37.492188 C 39.972656 33.433594 42.699219 27.148438 42.101562 20.625 C 41.792969 17.21875 40.476562 13.933594 38.476562 11.148438 C 38.105469 10.632812 37.710938 10.144531 37.292969 9.6875 C 37.285156 9.679688 37.273438 9.675781 37.265625 9.679688 C 37.253906 9.683594 37.246094 9.691406 37.246094 9.703125 C 37.046875 11.070312 36.359375 12.425781 35.480469 13.484375 C 35.457031 13.515625 35.457031 13.542969 35.488281 13.570312 C 38.453125 16.542969 39.03125 21.214844 38.105469 25.148438 C 37.53125 27.578125 36.457031 29.765625 34.882812 31.714844 Z M 23.027344 23.097656 C 23.023438 23.113281 23.011719 23.121094 22.996094 23.121094 C 22.976562 23.121094 22.96875 23.113281 22.960938 23.097656 C 21.957031 21.082031 21.019531 19.226562 20.148438 17.53125 C 19.144531 15.582031 17.375 14.496094 15.222656 14.53125 C 13.597656 14.558594 12.320312 15.226562 11.390625 16.539062 C 9.441406 19.300781 10.074219 22.996094 12.628906 25.132812 C 14.730469 26.886719 18.117188 29.730469 22.789062 33.664062 C 22.953125 33.804688 23.058594 33.855469 23.234375 33.707031 C 24.785156 32.382812 27.746094 29.902344 32.109375 26.261719 C 33.222656 25.335938 33.890625 24.738281 34.113281 24.476562 C 34.804688 23.671875 35.289062 22.746094 35.566406 21.707031 C 36.445312 18.425781 34.503906 14.59375 30.785156 14.53125 C 29.136719 14.503906 27.675781 15.136719 26.632812 16.421875 C 26.390625 16.71875 26.089844 17.207031 25.726562 17.886719 C 24.875 19.476562 23.976562 21.214844 23.027344 23.097656 Z M 23.027344 23.097656 " fill-opacity="1" fill-rule="nonzero"/><path fill="#ffffff" d="M 10.277344 8.109375 L 10.5625 7.871094 C 15.0625 4.210938 20.75 2.726562 26.445312 3.707031 C 29.863281 4.296875 32.96875 5.753906 35.757812 8.078125 C 35.828125 8.132812 35.824219 8.1875 35.75 8.234375 C 32.625 10.148438 29.015625 10.886719 25.386719 11.078125 C 23.164062 11.195312 20.746094 11.164062 18.453125 10.882812 C 15.820312 10.554688 13.441406 9.925781 11.171875 8.730469 C 10.898438 8.585938 10.609375 8.414062 10.304688 8.210938 C 10.277344 8.195312 10.265625 8.171875 10.273438 8.140625 Z M 10.277344 8.109375 " fill-opacity="1" fill-rule="nonzero"/><path fill="#22373f" d="M 10.5625 7.871094 L 10.277344 8.109375 C 10.261719 8.109375 10.253906 8.101562 10.25 8.082031 C 10.25 8.078125 10.25 8.070312 10.253906 8.066406 C 10.355469 7.941406 10.457031 7.878906 10.5625 7.871094 Z M 10.5625 7.871094 " fill-opacity="1" fill-rule="nonzero"/><path fill="#ffffff" d="M 27.0625 36.933594 C 30.050781 36.070312 32.554688 34.460938 34.574219 32.105469 C 34.683594 31.976562 34.785156 31.84375 34.882812 31.714844 C 36.457031 29.765625 37.53125 27.578125 38.105469 25.148438 C 39.03125 21.214844 38.453125 16.542969 35.488281 13.570312 C 35.457031 13.542969 35.457031 13.515625 35.480469 13.484375 C 36.359375 12.425781 37.046875 11.070312 37.246094 9.703125 C 37.246094 9.691406 37.253906 9.683594 37.265625 9.679688 C 37.273438 9.675781 37.285156 9.679688 37.292969 9.6875 C 37.710938 10.144531 38.105469 10.632812 38.476562 11.148438 C 40.476562 13.933594 41.792969 17.21875 42.101562 20.625 C 42.699219 27.148438 39.972656 33.433594 34.859375 37.492188 C 32.089844 39.683594 28.605469 41.097656 25.113281 41.488281 C 22.464844 41.785156 19.859375 41.535156 17.289062 40.742188 C 14.527344 39.886719 12.050781 38.414062 9.863281 36.320312 C 7.21875 33.789062 5.433594 30.78125 4.507812 27.292969 C 4.011719 25.425781 3.800781 23.5625 3.875 21.707031 C 4.050781 17.257812 5.8125 12.964844 8.746094 9.625 C 8.761719 9.609375 8.777344 9.605469 8.796875 9.613281 C 8.816406 9.617188 8.824219 9.632812 8.828125 9.652344 C 8.84375 9.851562 8.871094 10.035156 8.914062 10.210938 C 9.195312 11.4375 9.734375 12.53125 10.523438 13.5 C 10.554688 13.535156 10.550781 13.566406 10.523438 13.601562 C 9.453125 14.726562 8.683594 16.042969 8.214844 17.546875 C 5.375 26.652344 12.113281 36.515625 21.527344 37.414062 C 23.386719 37.59375 25.234375 37.433594 27.0625 36.933594 Z M 27.0625 36.933594 " fill-opacity="1" fill-rule="nonzero"/><path fill="#ffffff" d="M 23.027344 23.097656 C 23.976562 21.214844 24.875 19.476562 25.726562 17.886719 C 26.089844 17.207031 26.390625 16.71875 26.632812 16.421875 C 27.675781 15.136719 29.136719 14.503906 30.785156 14.53125 C 34.503906 14.59375 36.445312 18.425781 35.566406 21.707031 C 35.289062 22.746094 34.804688 23.671875 34.113281 24.476562 C 33.890625 24.738281 33.222656 25.335938 32.109375 26.261719 C 27.746094 29.902344 24.785156 32.382812 23.234375 33.707031 C 23.058594 33.855469 22.953125 33.804688 22.789062 33.664062 C 18.117188 29.730469 14.730469 26.886719 12.628906 25.132812 C 10.074219 22.996094 9.441406 19.300781 11.390625 16.539062 C 12.320312 15.226562 13.597656 14.558594 15.222656 14.53125 C 17.375 14.496094 19.144531 15.582031 20.148438 17.53125 C 21.019531 19.226562 21.957031 21.082031 22.960938 23.097656 C 22.96875 23.113281 22.976562 23.121094 22.996094 23.121094 C 23.011719 23.121094 23.023438 23.113281 23.027344 23.097656 Z M 23.035156 30.484375 C 24.304688 28.828125 25.769531 26.910156 27.425781 24.726562 C 27.550781 24.5625 27.65625 24.441406 27.753906 24.359375 C 27.855469 24.265625 27.976562 24.214844 28.113281 24.199219 C 28.414062 24.164062 28.625 24.132812 28.757812 24.109375 C 29.617188 23.941406 30.457031 23.539062 31.085938 22.90625 C 31.738281 22.25 32.34375 21.609375 33.4375 20.445312 C 33.921875 19.929688 33.160156 19.167969 32.757812 19.59375 C 31.367188 21.066406 30.582031 21.894531 30.398438 22.085938 C 30.378906 22.105469 30.359375 22.105469 30.339844 22.085938 L 29.902344 21.605469 C 29.875 21.574219 29.875 21.546875 29.902344 21.515625 C 30.476562 20.917969 31.195312 20.164062 32.0625 19.25 C 32.253906 19.046875 32.359375 18.921875 32.382812 18.875 C 32.53125 18.5625 32.226562 18.1875 31.921875 18.121094 C 31.703125 18.074219 31.542969 18.210938 31.382812 18.386719 C 30.9375 18.863281 30.179688 19.671875 29.109375 20.8125 C 29.101562 20.824219 29.09375 20.824219 29.085938 20.8125 L 28.597656 20.28125 C 28.578125 20.257812 28.578125 20.238281 28.601562 20.214844 L 31.117188 17.621094 C 31.199219 17.53125 31.226562 17.429688 31.199219 17.316406 C 31.078125 16.800781 30.503906 16.4375 30.042969 16.863281 C 29.496094 17.371094 28.878906 17.984375 28.195312 18.695312 C 27.238281 19.699219 26.503906 20.523438 26.511719 21.945312 C 26.515625 22.203125 26.519531 22.527344 26.527344 22.914062 C 26.527344 22.945312 26.519531 22.96875 26.507812 22.996094 C 26.464844 23.082031 26.398438 23.167969 26.3125 23.25 C 25.140625 24.414062 24.066406 25.492188 23.078125 26.480469 C 23.050781 26.507812 23.023438 26.507812 22.996094 26.480469 L 19.449219 23.042969 C 19.410156 23.007812 19.394531 22.960938 19.394531 22.910156 C 19.398438 22.667969 19.40625 22.421875 19.421875 22.179688 C 19.480469 21.136719 19.242188 20.164062 18.710938 19.261719 C 18.070312 18.167969 16.898438 16.929688 15.609375 16.792969 C 14.578125 16.683594 13.769531 17.21875 13.308594 18.125 C 13.171875 18.390625 13.082031 18.75 13.039062 19.207031 C 12.941406 20.230469 13.363281 21.367188 13.949219 22.191406 C 14.816406 23.414062 16.378906 24.125 17.867188 24.207031 C 18.113281 24.222656 18.316406 24.335938 18.480469 24.550781 C 20.421875 27.101562 21.921875 29.078125 22.988281 30.484375 C 23.003906 30.503906 23.019531 30.503906 23.035156 30.484375 Z M 23.035156 30.484375 " fill-opacity="1" fill-rule="nonzero"/><path fill="#f97316" d="M 23.035156 30.484375 C 23.019531 30.503906 23.003906 30.503906 22.988281 30.484375 C 21.921875 29.078125 20.421875 27.101562 18.480469 24.550781 C 18.316406 24.335938 18.113281 24.222656 17.867188 24.207031 C 16.378906 24.125 14.816406 23.414062 13.949219 22.191406 C 13.363281 21.367188 12.941406 20.230469 13.039062 19.207031 C 13.082031 18.75 13.171875 18.390625 13.308594 18.125 C 13.769531 17.21875 14.578125 16.683594 15.609375 16.792969 C 16.898438 16.929688 18.070312 18.167969 18.710938 19.261719 C 19.242188 20.164062 19.480469 21.136719 19.421875 22.179688 C 19.40625 22.421875 19.398438 22.667969 19.394531 22.910156 C 19.394531 22.960938 19.410156 23.007812 19.449219 23.042969 L 22.996094 26.480469 C 23.023438 26.507812 23.050781 26.507812 23.078125 26.480469 C 24.066406 25.492188 25.140625 24.414062 26.3125 23.25 C 26.398438 23.167969 26.464844 23.082031 26.507812 22.996094 C 26.519531 22.96875 26.527344 22.945312 26.527344 22.914062 C 26.519531 22.527344 26.515625 22.203125 26.511719 21.945312 C 26.503906 20.523438 27.238281 19.699219 28.195312 18.695312 C 28.878906 17.984375 29.496094 17.371094 30.042969 16.863281 C 30.503906 16.4375 31.078125 16.800781 31.199219 17.316406 C 31.226562 17.429688 31.199219 17.53125 31.117188 17.621094 L 28.601562 20.214844 C 28.578125 20.238281 28.578125 20.257812 28.597656 20.28125 L 29.085938 20.8125 C 29.09375 20.824219 29.101562 20.824219 29.109375 20.8125 C 30.179688 19.671875 30.9375 18.863281 31.382812 18.386719 C 31.542969 18.210938 31.703125 18.074219 31.921875 18.121094 C 32.226562 18.1875 32.53125 18.5625 32.382812 18.875 C 32.359375 18.921875 32.253906 19.046875 32.0625 19.25 C 31.195312 20.164062 30.476562 20.917969 29.902344 21.515625 C 29.875 21.546875 29.875 21.574219 29.902344 21.605469 L 30.339844 22.085938 C 30.359375 22.105469 30.378906 22.105469 30.398438 22.085938 C 30.582031 21.894531 31.367188 21.066406 32.757812 19.59375 C 33.160156 19.167969 33.921875 19.929688 33.4375 20.445312 C 32.34375 21.609375 31.738281 22.25 31.085938 22.90625 C 30.457031 23.539062 29.617188 23.941406 28.757812 24.109375 C 28.625 24.132812 28.414062 24.164062 28.113281 24.199219 C 27.976562 24.214844 27.855469 24.265625 27.753906 24.359375 C 27.65625 24.441406 27.550781 24.5625 27.425781 24.726562 C 25.769531 26.910156 24.304688 28.828125 23.035156 30.484375 Z M 23.035156 30.484375 " fill-opacity="1" fill-rule="nonzero"/><path fill="#22373f" d="M 34.882812 31.714844 C 34.785156 31.84375 34.683594 31.976562 34.574219 32.105469 C 32.554688 34.460938 30.050781 36.070312 27.0625 36.933594 C 27.039062 36.890625 27.050781 36.863281 27.089844 36.851562 C 30.195312 35.945312 32.761719 34.238281 34.792969 31.730469 C 34.828125 31.691406 34.855469 31.683594 34.882812 31.714844 Z M 34.882812 31.714844 " fill-opacity="1" fill-rule="nonzero"/></svg>