<?xml version="1.0" encoding="utf-8"?>
<!-- Generator: Adobe Illustrator 29.7.1, SVG Export Plug-In . SVG Version: 9.03 Build 0)  -->
<svg version="1.0" id="Layer_1" xmlns="http://www.w3.org/2000/svg" xmlns:xlink="http://www.w3.org/1999/xlink" x="0px" y="0px"
	 viewBox="0 0 200 60" style="enable-background:new 0 0 200 60;" xml:space="preserve">
<style type="text/css">
	.st0{clip-path:url(#SVGID_00000111192503177325667790000001388475643366094469_);}
	.st1{fill:#FFFFFF;}
	.st2{clip-path:url(#SVGID_00000182522409600743517880000008662014879594779033_);}
</style>
<g transform="matrix(1, 0, 0, 1, 48, 9)">
	<g>
		<defs>
			<rect id="SVGID_1_" x="16" y="7.15" width="132" height="36"/>
		</defs>
		<clipPath id="SVGID_00000166664768783324445290000008200501881710874021_">
			<use xlink:href="#SVGID_1_"  style="overflow:visible;"/>
		</clipPath>
		<g style="clip-path:url(#SVGID_00000166664768783324445290000008200501881710874021_);">
			<g>
				<g transform="translate(0.987251, 20.294542)">
					<g>
						<path class="st1" d="M17.47,17.97V1.37c0-0.43,0.01-0.75,0.04-0.96c0.03-0.21,0.1-0.44,0.23-0.71c0.26-0.51,0.9-0.77,1.9-0.77
							c1.01,0,1.69,0.14,2.04,0.4c0.34,0.25,0.55,0.62,0.6,1.1c0.72-0.97,1.85-1.46,3.4-1.46c1.55,0,3.02,0.73,4.4,2.19
							c1.39,1.46,2.08,3.16,2.08,5.08c0,1.93-0.69,3.63-2.06,5.08s-2.84,2.19-4.4,2.19c-1.56,0-2.68-0.44-3.38-1.31v5.75
							c0,0.43-0.02,0.75-0.04,0.96c-0.03,0.21-0.12,0.45-0.27,0.73c-0.14,0.28-0.39,0.47-0.73,0.58c-0.33,0.11-0.79,0.17-1.38,0.17
							s-1.06-0.06-1.42-0.17c-0.35-0.11-0.59-0.31-0.73-0.58c-0.14-0.27-0.22-0.5-0.25-0.71C17.49,18.72,17.47,18.4,17.47,17.97z
							 M23.08,4.6c-0.43,0.5-0.65,1.06-0.65,1.67c0,0.61,0.22,1.17,0.67,1.67c0.44,0.5,1.01,0.75,1.71,0.75
							c0.69,0,1.28-0.24,1.77-0.73c0.48-0.5,0.73-1.06,0.73-1.69s-0.23-1.19-0.69-1.69c-0.46-0.5-1.06-0.75-1.79-0.75
							C24.11,3.83,23.52,4.09,23.08,4.6z"/>
					</g>
				</g>
			</g>
			<g>
				<g transform="translate(13.3884, 20.294542)">
					<g>
						<path class="st1" d="M21.61-5.61c0-0.43,0.01-0.76,0.04-0.98c0.03-0.22,0.1-0.47,0.23-0.75c0.26-0.51,1.01-0.77,2.23-0.77
							c1.15,0,1.86,0.26,2.15,0.77c0.15,0.28,0.24,0.54,0.27,0.77c0.03,0.22,0.04,0.55,0.04,0.98V7.58c0,0.68,0.05,1.11,0.17,1.29
							c0.12,0.18,0.38,0.27,0.77,0.27c0.39,0,0.65,0.02,0.77,0.04c0.14,0.03,0.3,0.1,0.48,0.23c0.39,0.25,0.58,0.93,0.58,2.02
							c0,1.2-0.2,1.93-0.58,2.19c-0.49,0.34-1.66,0.41-3.52,0.19c-1.46-0.19-2.41-0.68-2.83-1.46c-0.53-0.93-0.79-2.41-0.79-4.44
							V-5.61z"/>
					</g>
				</g>
			</g>
			<g>
				<g transform="translate(20.356059, 20.294542)">
					<g>
						<path class="st1" d="M33.64,0.54c0.11-1.07,0.86-1.6,2.25-1.6c0.73,0,1.28,0.06,1.65,0.19c0.36,0.11,0.61,0.31,0.75,0.58
							c0.14,0.28,0.22,0.53,0.25,0.75c0.03,0.22,0.04,0.55,0.04,0.98v9.96c0,0.43-0.02,0.76-0.04,0.98
							c-0.03,0.21-0.1,0.46-0.23,0.75c-0.27,0.49-0.92,0.73-1.96,0.73c-1.03,0-1.72-0.12-2.06-0.38c-0.35-0.26-0.56-0.64-0.62-1.12
							c-0.7,1-1.86,1.5-3.5,1.5c-1.64,0-3.16-0.74-4.56-2.23c-1.41-1.5-2.1-3.23-2.1-5.21c0-1.98,0.7-3.72,2.1-5.21
							c1.42-1.48,2.97-2.23,4.67-2.23c0.64,0,1.22,0.11,1.75,0.33c0.53,0.22,0.9,0.44,1.1,0.65C33.33,0.15,33.5,0.34,33.64,0.54z
							 M28.47,6.43c0,0.62,0.24,1.2,0.73,1.71c0.5,0.5,1.09,0.75,1.79,0.75c0.71,0,1.29-0.26,1.75-0.77
							c0.46-0.51,0.69-1.07,0.69-1.69c0-0.62-0.22-1.2-0.67-1.73c-0.45-0.53-1.04-0.79-1.79-0.79c-0.74,0-1.34,0.27-1.81,0.79
							C28.7,5.23,28.47,5.81,28.47,6.43z"/>
					</g>
				</g>
			</g>
			<g>
				<g transform="translate(33.055516, 20.294542)">
					<g>
						<path class="st1" d="M36.85,3.97L35,3.85v3.92c0,0.52,0.07,0.89,0.23,1.12c0.17,0.22,0.47,0.33,0.92,0.33
							c0.46,0,0.8,0.02,1.04,0.04c0.23,0.03,0.48,0.12,0.75,0.27c0.43,0.25,0.65,0.89,0.65,1.9c0,1.2-0.27,1.93-0.79,2.19
							c-0.29,0.14-0.55,0.22-0.77,0.25c-0.21,0.03-0.52,0.04-0.94,0.04c-1.97,0-3.47-0.44-4.5-1.33c-1.02-0.89-1.52-2.4-1.52-4.52
							V3.85c-0.36,0.06-0.75,0.08-1.17,0.08c-0.42,0-0.77-0.16-1.04-0.48c-0.28-0.32-0.42-0.86-0.42-1.65
							c0-0.78,0.05-1.34,0.15-1.69c0.09-0.34,0.23-0.59,0.4-0.75c0.3-0.25,0.69-0.38,1.15-0.38l0.94,0.1v-2.92
							c0-0.44,0.01-0.77,0.04-0.98c0.03-0.21,0.11-0.43,0.27-0.67c0.25-0.47,0.98-0.71,2.19-0.71c1.29,0,2.05,0.35,2.29,1.04
							C34.95-4.82,35-4.34,35-3.67v2.77c0.83-0.07,1.46-0.1,1.9-0.1c0.43,0,0.75,0.02,0.96,0.04c0.22,0.03,0.48,0.12,0.77,0.27
							c0.48,0.25,0.73,0.98,0.73,2.19c0,1.2-0.26,1.93-0.77,2.19c-0.28,0.14-0.53,0.22-0.75,0.25C37.61,3.96,37.28,3.97,36.85,3.97z
							"/>
					</g>
				</g>
			</g>
			<g>
				<g transform="translate(42.196502, 20.294542)">
					<g>
						<path class="st1" d="M45.63,4.64c0,1.17-0.29,2.03-0.88,2.58c-0.57,0.56-1.2,0.83-1.9,0.83h-6.73c0,0.53,0.31,0.97,0.94,1.33
							c0.62,0.36,1.25,0.54,1.88,0.54c1.09,0,1.96-0.11,2.58-0.33l0.31-0.12c0.44-0.21,0.82-0.31,1.12-0.31
							c0.61,0,1.13,0.43,1.56,1.29c0.25,0.5,0.38,0.93,0.38,1.29c0,1.7-2.02,2.54-6.06,2.54c-1.39,0-2.64-0.24-3.73-0.73
							c-1.08-0.48-1.93-1.12-2.54-1.92c-1.2-1.54-1.79-3.26-1.79-5.15c0-2.39,0.77-4.3,2.31-5.73c1.54-1.43,3.47-2.15,5.79-2.15
							c2.62,0,4.55,0.93,5.79,2.79C45.31,2.4,45.63,3.47,45.63,4.64z M39.65,5.47c0.71,0,1.06-0.3,1.06-0.92
							c0-0.43-0.17-0.78-0.5-1.04c-0.32-0.26-0.79-0.4-1.42-0.4c-0.61,0-1.22,0.25-1.83,0.75c-0.6,0.5-0.9,1.04-0.9,1.6H39.65z"/>
					</g>
				</g>
			</g>
			<g>
				<g transform="translate(53.766544, 20.294542)">
					<g>
						<path class="st1" d="M54.21-0.94c1.21,0.53,1.81,1.18,1.81,1.96c0,0.32-0.16,0.83-0.46,1.54c-0.29,0.71-0.54,1.33-0.75,1.85
							l-3.15,7.62c-0.28,0.83-0.75,1.43-1.42,1.77c-0.28,0.12-0.64,0.19-1.08,0.19c-0.43,0-0.85-0.17-1.27-0.5
							c-0.41-0.33-0.67-0.67-0.79-1l-0.23-0.48c-0.16-0.39-0.71-1.86-1.67-4.44c-0.2,0.46-0.48,1.2-0.85,2.23
							c-0.36,1.03-0.6,1.68-0.71,1.94c-0.1,0.25-0.16,0.42-0.19,0.5c-0.03,0.08-0.11,0.24-0.25,0.48c-0.14,0.22-0.29,0.42-0.46,0.58
							c-0.46,0.46-0.98,0.69-1.56,0.69c-0.58,0-1.08-0.17-1.48-0.5c-0.39-0.33-0.66-0.67-0.79-1L34.63,2.04
							c-0.2-0.57-0.29-0.94-0.29-1.1c0-0.76,0.54-1.36,1.62-1.79c0.61-0.25,1.1-0.37,1.48-0.37s0.68,0.08,0.92,0.25
							c0.25,0.16,0.42,0.31,0.5,0.48c0.09,0.16,0.17,0.32,0.23,0.5c0.32,0.75,0.99,2.53,2.02,5.33l1.69-4.6
							c0.11-0.38,0.32-0.71,0.62-1c0.54-0.54,1.09-0.81,1.67-0.81c0.57,0,1.05,0.16,1.46,0.46c0.42,0.29,0.7,0.59,0.85,0.9
							l0.21,0.48c0.96,2.66,1.52,4.18,1.69,4.56l1.73-4.73c0.46-1.21,1.14-1.81,2.04-1.81C53.43-1.24,53.81-1.14,54.21-0.94z"/>
					</g>
				</g>
			</g>
			<g>
				<g transform="translate(70.663631, 20.294542)">
					<g>
						<path class="st1" d="M40.7,1.43c0-0.43,0.01-0.76,0.04-0.98c0.03-0.22,0.1-0.47,0.23-0.75c0.26-0.48,1.01-0.73,2.23-0.73
							c0.9,0,1.54,0.16,1.92,0.48c0.33,0.27,0.51,0.67,0.52,1.21c0.01,0.2,0.02,0.47,0.02,0.83v9.94c0,0.45-0.02,0.78-0.04,1
							c-0.03,0.21-0.12,0.46-0.27,0.75c-0.24,0.49-0.97,0.73-2.19,0.73c-1.2,0-1.93-0.26-2.19-0.77c-0.12-0.28-0.2-0.52-0.23-0.73
							c-0.03-0.21-0.04-0.54-0.04-1V1.43z M45.37-3.84c-0.14,0.28-0.39,0.47-0.75,0.58c-0.36,0.11-0.84,0.17-1.44,0.17
							c-0.6,0-1.08-0.05-1.44-0.17c-0.36-0.11-0.61-0.3-0.75-0.58c-0.14-0.29-0.22-0.54-0.25-0.75c-0.03-0.22-0.04-0.55-0.04-0.98
							c0-0.44,0.01-0.77,0.04-0.98c0.03-0.22,0.1-0.47,0.23-0.75c0.26-0.5,1.01-0.75,2.23-0.75c1.19,0,1.91,0.25,2.15,0.75
							c0.15,0.29,0.24,0.55,0.27,0.77c0.03,0.21,0.04,0.54,0.04,0.98c0,0.43-0.02,0.76-0.04,0.98C45.59-4.36,45.5-4.12,45.37-3.84z"
							/>
					</g>
				</g>
			</g>
			<g>
				<g transform="translate(76.097121, 20.294542)">
					<g>
						<path class="st1" d="M42.62,12.58c-0.36-0.22-0.54-0.57-0.54-1.06c0-0.5,0.36-1.26,1.08-2.27c0.21-0.32,0.54-0.48,1-0.48
							c0.47,0,1.1,0.24,1.9,0.71c0.79,0.46,1.51,0.69,2.17,0.69c1.15,0,1.73-0.23,1.73-0.69c0-0.36-0.64-0.62-1.9-0.79
							c-1.2-0.17-2.39-0.61-3.56-1.33c-0.56-0.34-1.02-0.88-1.38-1.6c-0.35-0.73-0.52-1.6-0.52-2.6c0-2.98,2.05-4.48,6.17-4.48
							c1.33,0,2.71,0.32,4.15,0.96c0.67,0.31,1,0.69,1,1.15c0,0.45-0.21,1-0.62,1.67c-0.42,0.67-0.85,1-1.29,1
							c-0.22,0-0.65-0.14-1.27-0.42c-0.61-0.29-1.28-0.44-2-0.44c-1.11,0-1.67,0.21-1.67,0.62c0,0.57,0.65,0.94,1.94,1.1
							c1.25,0.14,2.46,0.5,3.62,1.08c0.55,0.27,1.01,0.72,1.38,1.38c0.38,0.66,0.56,1.47,0.56,2.46c0,0.99-0.19,1.83-0.56,2.52
							c-0.36,0.68-0.88,1.2-1.54,1.54c-1.21,0.58-2.73,0.88-4.56,0.88C46.05,14.16,44.29,13.63,42.62,12.58z"/>
					</g>
				</g>
			</g>
			<g>
				<defs>
					<rect id="SVGID_00000106835268411913075130000001566297452842268547_" x="132" y="17.81" width="15.84" height="17.33"/>
				</defs>
				<clipPath id="SVGID_00000026885503234738564530000018120085171999722889_">
					<use xlink:href="#SVGID_00000106835268411913075130000001566297452842268547_"  style="overflow:visible;"/>
				</clipPath>
				<g style="clip-path:url(#SVGID_00000026885503234738564530000018120085171999722889_);">
					<g>
						<g transform="translate(86.516634, 20.294542)">
							<g>
								<path class="st1" d="M60.4,4.64c0,1.17-0.29,2.03-0.88,2.58c-0.57,0.56-1.2,0.83-1.9,0.83H50.9c0,0.53,0.31,0.97,0.94,1.33
									c0.62,0.36,1.25,0.54,1.88,0.54c1.09,0,1.96-0.11,2.58-0.33l0.31-0.12c0.44-0.21,0.82-0.31,1.12-0.31
									c0.61,0,1.13,0.43,1.56,1.29c0.25,0.5,0.38,0.93,0.38,1.29c0,1.7-2.02,2.54-6.06,2.54c-1.39,0-2.64-0.24-3.73-0.73
									c-1.08-0.48-1.93-1.12-2.54-1.92c-1.2-1.54-1.79-3.26-1.79-5.15c0-2.39,0.77-4.3,2.31-5.73c1.54-1.43,3.47-2.15,5.79-2.15
									c2.62,0,4.55,0.93,5.79,2.79C60.08,2.4,60.4,3.47,60.4,4.64z M54.42,5.47c0.71,0,1.06-0.3,1.06-0.92
									c0-0.43-0.17-0.78-0.5-1.04c-0.32-0.26-0.79-0.4-1.42-0.4c-0.61,0-1.22,0.25-1.83,0.75c-0.6,0.5-0.9,1.04-0.9,1.6H54.42z"/>
							</g>
						</g>
					</g>
				</g>
			</g>
		</g>
	</g>
</g>
<g>
	<path class="st1" d="M60.31,24.17c-1.38-7.19-5.51-13.8-11.46-18.05c-9.49-6.77-22.29-7.05-32.2-1.09
		c-1.85,1.11-3.49,2.35-4.91,3.73C4.88,15.4,1.93,24.78,3.4,34.15c1.66,10.58,9.31,19.48,19.48,22.82
		c5.48,1.8,11.02,1.94,16.61,0.41c9.16-2.51,16.36-9.23,19.6-18.09C60.85,34.5,61.26,29.11,60.31,24.17z M14.88,10.34
		c0.14-0.17,0.27-0.25,0.41-0.26c6-4.88,13.58-6.86,21.18-5.55c4.56,0.79,8.7,2.73,12.42,5.83c0.09,0.07,0.09,0.15-0.02,0.21
		c-4.16,2.55-8.97,3.54-13.81,3.79c-2.96,0.16-6.19,0.11-9.24-0.26c-3.51-0.44-6.69-1.28-9.71-2.87c-0.36-0.19-0.75-0.42-1.16-0.69
		c-0.04-0.02-0.05-0.05-0.04-0.09l0.01-0.04c-0.02,0-0.03-0.01-0.04-0.04C14.87,10.36,14.87,10.35,14.88,10.34z M48.63,28.53
		c-0.37,1.39-1.02,2.62-1.94,3.69c-0.3,0.35-1.19,1.15-2.67,2.38c-5.82,4.85-9.77,8.16-11.84,9.93c-0.23,0.2-0.37,0.13-0.59-0.06
		c-6.23-5.24-10.74-9.04-13.55-11.38c-3.41-2.85-4.25-7.78-1.65-11.46c1.24-1.75,2.94-2.64,5.11-2.68c2.87-0.05,5.23,1.4,6.57,4
		c1.16,2.26,2.41,4.73,3.75,7.42c0.01,0.02,0.02,0.03,0.04,0.03c0.03,0,0.04-0.01,0.05-0.03c1.27-2.51,2.46-4.83,3.6-6.95
		c0.48-0.91,0.89-1.56,1.21-1.95c1.39-1.71,3.34-2.56,5.54-2.52C47.2,19.05,49.8,24.16,48.63,28.53z M47.68,49.58
		c-3.69,2.92-8.34,4.81-12.99,5.33c-3.53,0.4-7.01,0.06-10.43-0.99c-3.68-1.14-6.98-3.1-9.9-5.9c-3.53-3.38-5.91-7.39-7.14-12.04
		c-0.66-2.49-0.94-4.97-0.84-7.45c0.23-5.93,2.58-11.66,6.49-16.11c0.02-0.02,0.04-0.03,0.07-0.02c0.02,0.01,0.04,0.03,0.04,0.05
		c0.02,0.27,0.06,0.51,0.11,0.74c0.38,1.64,1.1,3.09,2.15,4.39c0.04,0.05,0.04,0.09,0,0.14c-1.43,1.5-2.45,3.26-3.08,5.26
		c-3.79,12.14,5.2,25.29,17.75,26.49c2.48,0.24,4.94,0.03,7.38-0.64c-0.03-0.06-0.02-0.09,0.03-0.11c4.15-1.21,7.57-3.48,10.28-6.83
		c0.05-0.05,0.08-0.06,0.12-0.02c2.1-2.6,3.53-5.52,4.29-8.76c1.24-5.24,0.47-11.47-3.49-15.44c-0.04-0.04-0.04-0.07-0.01-0.11
		c1.17-1.41,2.09-3.22,2.35-5.04c0-0.02,0.01-0.03,0.03-0.03c0.01-0.01,0.03,0,0.04,0.01c0.56,0.61,1.08,1.26,1.58,1.95
		c2.66,3.71,4.42,8.09,4.83,12.64C58.14,35.79,54.5,44.17,47.68,49.58z"/>
	<path class="st1" d="M32.13,39.83c-0.02,0.03-0.04,0.03-0.06,0c-1.42-1.88-3.43-4.51-6.01-7.91c-0.22-0.29-0.49-0.44-0.82-0.46
		c-1.98-0.11-4.07-1.06-5.22-2.69c-0.79-1.1-1.35-2.61-1.21-3.98c0.06-0.61,0.18-1.09,0.36-1.44c0.61-1.21,1.69-1.92,3.07-1.78
		c1.72,0.18,3.28,1.83,4.14,3.29c0.71,1.2,1.02,2.5,0.95,3.89c-0.02,0.32-0.03,0.65-0.04,0.97c-0.01,0.07,0.02,0.13,0.07,0.18
		l4.73,4.58c0.04,0.04,0.07,0.04,0.11,0c1.31-1.32,2.75-2.76,4.31-4.31c0.11-0.11,0.2-0.22,0.26-0.34c0.02-0.04,0.03-0.07,0.03-0.11
		c-0.01-0.52-0.02-0.95-0.02-1.29c-0.01-1.9,0.97-2.99,2.24-4.33c0.91-0.95,1.73-1.77,2.46-2.44c0.61-0.57,1.38-0.08,1.54,0.6
		c0.04,0.15,0,0.29-0.11,0.41l-3.35,3.46c-0.03,0.03-0.03,0.06-0.01,0.09l0.65,0.71c0.01,0.02,0.03,0.02,0.04,0
		c1.43-1.52,2.44-2.6,3.03-3.23c0.22-0.23,0.43-0.42,0.72-0.35c0.41,0.09,0.81,0.59,0.61,1.01c-0.03,0.06-0.17,0.23-0.43,0.5
		c-1.16,1.22-2.11,2.22-2.88,3.02c-0.04,0.04-0.04,0.08,0,0.12l0.58,0.64c0.03,0.03,0.05,0.03,0.08,0c0.24-0.26,1.29-1.36,3.15-3.32
		c0.54-0.57,1.55,0.45,0.91,1.14c-1.46,1.55-2.27,2.41-3.14,3.28c-0.84,0.84-1.96,1.38-3.1,1.6c-0.18,0.03-0.46,0.07-0.86,0.12
		c-0.18,0.02-0.34,0.09-0.48,0.21c-0.13,0.11-0.28,0.27-0.44,0.49C35.78,35.07,33.83,37.62,32.13,39.83z"/>
</g>
</svg>
